# Hierarchical Translation and Rotation (.htr) file
# Generated by EVaRT
[Header]
FileType htr
DataType HTRS
FileVersion 1
NumSegments 23
NumFrames 5
DataFrameRate 120
EulerRotationOrder ZYX
CalibrationUnits mm
RotationUnits Degrees
GlobalAxisofGravity Y
BoneLengthAxis Y
ScaleFactor 1
[SegmentNames&Hierarchy]
#CHILD            PARENT
DaveRoot          GLOBAL
Spine1            DaveRoot
Spine2            Spine1
Spine3            Spine2
Spine4            Spine3
Neck              Spine4
Head              Neck
LClavicle         Spine4
LUpperArm         LClavicle
LLowerArm         LUpperArm
LHand             LLowerArm
RClavicle         Spine4
RUpperArm         RClavicle
RLowerArm         RUpperArm
RHand             RLowerArm
RUpperLeg         DaveRoot
RLowerLeg         RUpperLeg
RFoot             RLowerLeg
RToes             RFoot
LUpperLeg         DaveRoot
LLowerLeg         LUpperLeg
LFoot             LLowerLeg
LToes             LFoot
[BasePosition]
#SegmentName      Tx   Ty   Tz   Rx   Ry   Rz   BoneLength
DaveRoot          1078.678277	988.889323	-667.355416	21.100172	-35.850280	-13.563871	100.000000
Spine1            0.000000	100.000000	0.000000	-14.881963	2.292165	3.740750	100.000000
Spine2            0.000000	100.000000	0.000000	6.530342	0.668586	4.295175	100.000000
Spine3            0.000000	100.000000	0.000000	12.838786	0.191691	4.342582	100.000000
Spine4            0.000000	100.000000	0.000000	14.062130	1.171471	5.872723	100.000000
Neck              0.000000	100.000000	0.000000	7.737895	11.498691	-3.920750	80.000000
Head              0.000000	80.000000	0.000000	-47.820279	-9.378091	-2.499782	200.000000
LClavicle         0.000000	100.000000	0.000000	7.006000	0.163524	-123.648937	200.000000
LUpperArm         0.000000	200.000000	0.000000	39.957204	52.516966	-16.160711	300.000000
LLowerArm         0.000000	300.000000	0.000000	-1.806693	2.175812	1.895763	200.000000
LHand             0.000000	200.000000	0.000000	16.195035	-1.768569	8.793625	120.000000
RClavicle         0.000000	100.000000	0.000000	3.329328	-3.962094	109.315139	200.000000
RUpperArm         0.000000	200.000000	0.000000	31.467517	-27.516660	21.198784	300.000000
RLowerArm         0.000000	300.000000	0.000000	20.023297	-3.682026	-7.348670	200.000000
RHand             0.000000	200.000000	0.000000	6.266882	13.427731	10.826414	120.000000
RUpperLeg         -115.911102	-10.000000	31.058285	22.207319	27.607647	-154.283666	530.000000
RLowerLeg         0.000000	530.000000	0.000000	-15.604109	0.479387	-2.520024	460.000000
RFoot             0.000000	460.000000	0.000000	98.099007	-9.797309	28.788465	130.000000
RToes             0.000000	130.000000	0.000000	-15.148141	0.005479	-0.002881	100.000000
LUpperLeg         115.911102	-10.000000	31.058285	41.660003	-3.682702	-163.432677	530.000000
LLowerLeg         0.000000	530.000000	0.000000	-22.778950	-3.275937	3.046484	460.000000
LFoot             0.000000	460.000000	0.000000	77.647326	-23.190969	-3.622247	130.000000
LToes             0.000000	130.000000	0.000000	14.512714	-0.000000	-0.000086	100.000000
#Beginning of Data.
[DaveRoot]
#Fr	Tx	Ty	Tz	Rx	Ry	Rz	SF
455	-543.316044	-795.534027	942.823161	72.842092	51.684410	30.172362	1.000000	
456	-544.526719	-796.416249	941.661676	72.836078	51.619179	30.596891	1.000000	
457	-545.522744	-797.036319	940.497551	72.811224	51.491806	30.983899	1.000000	
458	-546.338369	-797.416963	939.318206	72.784002	51.300822	31.330122	1.000000	
459	-547.016875	-797.597875	938.106355	72.756378	51.059871	31.631900	1.000000	
[Spine1]
#Fr	Tx	Ty	Tz	Rx	Ry	Rz	SF
455	0.000000	0.000000	0.000000	-2.455896	-2.814666	-8.831235	1.000000	
456	0.000000	0.000000	0.000000	-2.451969	-2.919725	-8.918369	1.000000	
457	0.000000	0.000000	0.000000	-2.455518	-3.028275	-9.006267	1.000000	
458	0.000000	0.000000	0.000000	-2.473878	-3.134703	-9.093172	1.000000	
459	0.000000	0.000000	0.000000	-2.507636	-3.230510	-9.172191	1.000000	
[Spine2]
#Fr	Tx	Ty	Tz	Rx	Ry	Rz	SF
455	0.000000	0.000000	0.000000	-2.455896	-2.814666	-8.831235	1.000000	
456	0.000000	0.000000	0.000000	-2.451969	-2.919725	-8.918369	1.000000	
457	0.000000	0.000000	0.000000	-2.455518	-3.028275	-9.006267	1.000000	
458	0.000000	0.000000	0.000000	-2.473878	-3.134703	-9.093172	1.000000	
459	0.000000	0.000000	0.000000	-2.507636	-3.230510	-9.172191	1.000000	
[Spine3]
#Fr	Tx	Ty	Tz	Rx	Ry	Rz	SF
455	0.000000	0.000000	0.000000	-2.455896	-2.814666	-8.831235	1.000000	
456	0.000000	0.000000	0.000000	-2.451969	-2.919725	-8.918369	1.000000	
457	0.000000	0.000000	0.000000	-2.455518	-3.028275	-9.006267	1.000000	
458	0.000000	0.000000	0.000000	-2.473878	-3.134703	-9.093172	1.000000	
459	0.000000	0.000000	0.000000	-2.507636	-3.230510	-9.172191	1.000000	
[Spine4]
#Fr	Tx	Ty	Tz	Rx	Ry	Rz	SF
455	0.000000	0.000000	0.000000	-2.455896	-2.814666	-8.831235	1.000000	
456	0.000000	0.000000	0.000000	-2.451969	-2.919725	-8.918369	1.000000	
457	0.000000	0.000000	0.000000	-2.455518	-3.028275	-9.006267	1.000000	
458	0.000000	0.000000	0.000000	-2.473878	-3.134703	-9.093172	1.000000	
459	0.000000	0.000000	0.000000	-2.507636	-3.230510	-9.172191	1.000000	
[Neck]
#Fr	Tx	Ty	Tz	Rx	Ry	Rz	SF
455	0.000000	0.000000	0.000000	-8.072592	-13.160353	1.709252	1.000000	
456	0.000000	0.000000	0.000000	-8.146833	-12.631218	1.888723	1.000000	
457	0.000000	0.000000	0.000000	-8.181146	-12.047828	2.095026	1.000000	
458	0.000000	0.000000	0.000000	-8.167879	-11.432761	2.317500	1.000000	
459	0.000000	0.000000	0.000000	-8.104416	-10.815140	2.545210	1.000000	
[Head]
#Fr	Tx	Ty	Tz	Rx	Ry	Rz	SF
455	0.000000	0.000000	0.000000	-8.072592	-13.160353	1.709252	1.000000	
456	0.000000	0.000000	0.000000	-8.146833	-12.631218	1.888723	1.000000	
457	0.000000	0.000000	0.000000	-8.181146	-12.047828	2.095026	1.000000	
458	0.000000	0.000000	0.000000	-8.167879	-11.432761	2.317500	1.000000	
459	0.000000	0.000000	0.000000	-8.104416	-10.815140	2.545210	1.000000	
[LClavicle]
#Fr	Tx	Ty	Tz	Rx	Ry	Rz	SF
455	0.000000	0.000000	0.000000	-12.741581	1.496638	25.916350	1.000000	
456	0.000000	0.000000	0.000000	-12.767177	1.462276	25.753164	1.000000	
457	0.000000	0.000000	0.000000	-12.891121	1.429360	25.547754	1.000000	
458	0.000000	0.000000	0.000000	-13.097291	1.396015	25.305517	1.000000	
459	0.000000	0.000000	0.000000	-13.334132	1.359341	25.043177	1.000000	
[LUpperArm]
#Fr	Tx	Ty	Tz	Rx	Ry	Rz	SF
455	0.000000	0.000000	0.000000	144.180158	50.875566	-178.346716	1.000000	
456	0.000000	0.000000	0.000000	144.534837	51.253511	-178.015073	1.000000	
457	0.000000	0.000000	0.000000	144.834065	51.604547	-177.655329	1.000000	
458	0.000000	0.000000	0.000000	145.099995	51.914047	-177.255143	1.000000	
459	0.000000	0.000000	0.000000	145.345898	52.184380	-176.837260	1.000000	
[LLowerArm]
#Fr	Tx	Ty	Tz	Rx	Ry	Rz	SF
455	0.000000	0.000000	0.000000	-72.408759	0.000000	0.000000	1.000000	
456	0.000000	0.000000	0.000000	-72.168280	-0.000000	0.000000	1.000000	
457	0.000000	0.000000	0.000000	-71.805596	0.000000	0.000000	1.000000	
458	0.000000	0.000000	0.000000	-71.333788	0.000000	0.000000	1.000000	
459	0.000000	0.000000	0.000000	-70.780775	0.000000	0.000000	1.000000	
[LHand]
#Fr	Tx	Ty	Tz	Rx	Ry	Rz	SF
455	0.000000	0.000000	0.000000	2.593411	-0.000000	0.000000	1.000000	
456	0.000000	0.000000	0.000000	2.803599	-0.000000	0.000000	1.000000	
457	0.000000	0.000000	0.000000	2.992157	-0.000000	0.000000	1.000000	
458	0.000000	0.000000	0.000000	3.174294	-0.000000	0.000000	1.000000	
459	0.000000	0.000000	0.000000	3.366951	-0.000000	0.000000	1.000000	
[RClavicle]
#Fr	Tx	Ty	Tz	Rx	Ry	Rz	SF
455	0.000000	0.000000	0.000000	-6.390548	1.376054	10.585830	1.000000	
456	0.000000	0.000000	0.000000	-6.381830	1.398924	10.797269	1.000000	
457	0.000000	0.000000	0.000000	-6.376151	1.424467	11.025911	1.000000	
458	0.000000	0.000000	0.000000	-6.373503	1.450343	11.251463	1.000000	
459	0.000000	0.000000	0.000000	-6.376686	1.473847	11.445076	1.000000	
[RUpperArm]
#Fr	Tx	Ty	Tz	Rx	Ry	Rz	SF
455	0.000000	0.000000	0.000000	-19.463246	19.818153	-6.021131	1.000000	
456	0.000000	0.000000	0.000000	-18.511503	21.995439	-7.978905	1.000000	
457	0.000000	0.000000	0.000000	-17.225592	24.216817	-10.089796	1.000000	
458	0.000000	0.000000	0.000000	-15.622251	26.271242	-12.244384	1.000000	
459	0.000000	0.000000	0.000000	-13.757228	28.025490	-14.386589	1.000000	
[RLowerArm]
#Fr	Tx	Ty	Tz	Rx	Ry	Rz	SF
455	0.000000	0.000000	0.000000	74.265537	0.000000	0.000000	1.000000	
456	0.000000	0.000000	0.000000	75.678471	0.000000	0.000000	1.000000	
457	0.000000	0.000000	0.000000	76.870561	0.000000	0.000000	1.000000	
458	0.000000	0.000000	0.000000	77.734405	0.000000	0.000000	1.000000	
459	0.000000	0.000000	0.000000	78.185661	0.000000	0.000000	1.000000	
[RHand]
#Fr	Tx	Ty	Tz	Rx	Ry	Rz	SF
455	0.000000	0.000000	0.000000	87.381345	-57.532984	-122.606079	1.000000	
456	0.000000	0.000000	0.000000	83.687917	-57.981408	-116.046551	1.000000	
457	0.000000	0.000000	0.000000	78.914762	-58.564937	-108.450205	1.000000	
458	0.000000	0.000000	0.000000	73.322309	-59.055896	-100.543712	1.000000	
459	0.000000	0.000000	0.000000	67.524447	-59.249179	-93.204099	1.000000	
[RUpperLeg]
#Fr	Tx	Ty	Tz	Rx	Ry	Rz	SF
455	0.000000	0.000000	0.000000	-19.549752	-20.661366	-2.624000	1.000000	
456	0.000000	0.000000	0.000000	-19.803878	-19.721147	-2.887185	1.000000	
457	0.000000	0.000000	0.000000	-20.022586	-18.892900	-3.175740	1.000000	
458	0.000000	0.000000	0.000000	-20.169192	-18.157614	-3.501628	1.000000	
459	0.000000	0.000000	0.000000	-20.231745	-17.476984	-3.872144	1.000000	
[RLowerLeg]
#Fr	Tx	Ty	Tz	Rx	Ry	Rz	SF
455	0.000000	0.000000	0.000000	-7.916522	-0.000000	0.000000	1.000000	
456	0.000000	0.000000	0.000000	-8.285380	-0.000000	0.000000	1.000000	
457	0.000000	0.000000	0.000000	-8.619265	-0.000000	0.000000	1.000000	
458	0.000000	0.000000	0.000000	-8.935503	-0.000000	0.000000	1.000000	
459	0.000000	0.000000	0.000000	-9.243690	-0.000000	0.000000	1.000000	
[RFoot]
#Fr	Tx	Ty	Tz	Rx	Ry	Rz	SF
455	0.000000	0.000000	0.000000	-63.329359	-15.495398	21.850332	1.000000	
456	0.000000	0.000000	0.000000	-62.572779	-16.533626	21.003378	1.000000	
457	0.000000	0.000000	0.000000	-61.875572	-17.521889	20.118278	1.000000	
458	0.000000	0.000000	0.000000	-61.254656	-18.458613	19.308462	1.000000	
459	0.000000	0.000000	0.000000	-60.734663	-19.342075	18.680219	1.000000	
[RToes]
#Fr	Tx	Ty	Tz	Rx	Ry	Rz	SF
455	0.000000	0.000000	0.000000	50.185979	0.000000	0.000000	1.000000	
456	0.000000	0.000000	0.000000	49.628395	0.000000	0.000000	1.000000	
457	0.000000	0.000000	0.000000	49.190655	-0.000000	-0.000000	1.000000	
458	0.000000	0.000000	0.000000	48.888339	-0.000000	-0.000000	1.000000	
459	0.000000	0.000000	0.000000	48.725050	0.000000	0.000000	1.000000	
[LUpperLeg]
#Fr	Tx	Ty	Tz	Rx	Ry	Rz	SF
455	0.000000	0.000000	0.000000	-33.263679	10.685379	-7.168780	1.000000	
456	0.000000	0.000000	0.000000	-33.670403	10.223078	-7.122450	1.000000	
457	0.000000	0.000000	0.000000	-34.104513	9.767067	-7.192784	1.000000	
458	0.000000	0.000000	0.000000	-34.538276	9.311024	-7.368644	1.000000	
459	0.000000	0.000000	0.000000	-34.955201	8.856839	-7.625493	1.000000	
[LLowerLeg]
#Fr	Tx	Ty	Tz	Rx	Ry	Rz	SF
455	0.000000	0.000000	0.000000	-24.050166	0.000000	0.000000	1.000000	
456	0.000000	0.000000	0.000000	-23.899507	0.000000	0.000000	1.000000	
457	0.000000	0.000000	0.000000	-23.714822	0.000000	0.000000	1.000000	
458	0.000000	0.000000	0.000000	-23.509954	0.000000	0.000000	1.000000	
459	0.000000	0.000000	0.000000	-23.300527	0.000000	0.000000	1.000000	
[LFoot]
#Fr	Tx	Ty	Tz	Rx	Ry	Rz	SF
455	0.000000	0.000000	0.000000	5.648002	11.590913	-3.157436	1.000000	
456	0.000000	0.000000	0.000000	4.974707	11.688605	-2.766221	1.000000	
457	0.000000	0.000000	0.000000	4.154860	11.853049	-2.595525	1.000000	
458	0.000000	0.000000	0.000000	3.229029	11.979379	-2.662109	1.000000	
459	0.000000	0.000000	0.000000	2.240678	11.993436	-2.955360	1.000000	
[LToes]
#Fr	Tx	Ty	Tz	Rx	Ry	Rz	SF
455	0.000000	0.000000	0.000000	17.120931	0.000000	0.000000	1.000000	
456	0.000000	0.000000	0.000000	17.216767	0.000000	0.000000	1.000000	
457	0.000000	0.000000	0.000000	17.330387	0.000000	0.000000	1.000000	
458	0.000000	0.000000	0.000000	17.410742	0.000000	0.000000	1.000000	
459	0.000000	0.000000	0.000000	17.427558	0.000000	0.000000	1.000000	
